<svg width="10" height="7" viewBox="0 0 10 7" fill="none" xmlns="http://www.w3.org/2000/svg">
<path d="M5 0.933333C6.72273 0.933333 8.25909 1.92733 9.00909 3.5C8.25909 5.07267 6.72727 6.06667 5 6.06667C3.27273 6.06667 1.74091 5.07267 0.990909 3.5C1.74091 1.92733 3.27727 0.933333 5 0.933333ZM5 0C2.72727 0 0.786364 1.45133 0 3.5C0.786364 5.54867 2.72727 7 5 7C7.27273 7 9.21364 5.54867 10 3.5C9.21364 1.45133 7.27273 0 5 0ZM5 2.33333C5.62727 2.33333 6.13636 2.856 6.13636 3.5C6.13636 4.144 5.62727 4.66667 5 4.66667C4.37273 4.66667 3.86364 4.144 3.86364 3.5C3.86364 2.856 4.37273 2.33333 5 2.33333ZM5 1.4C3.87273 1.4 2.95455 2.34267 2.95455 3.5C2.95455 4.65733 3.87273 5.6 5 5.6C6.12727 5.6 7.04545 4.65733 7.04545 3.5C7.04545 2.34267 6.12727 1.4 5 1.4Z" fill="#ABABAB"/>
</svg>
