<svg width="6" height="9" viewBox="0 0 6 9" fill="none" xmlns="http://www.w3.org/2000/svg">
<path d="M1.75568 6.39205V6.34091C1.76136 5.7983 1.81818 5.36648 1.92614 5.04545C2.03409 4.72443 2.1875 4.46449 2.38636 4.26563C2.58523 4.06676 2.82386 3.88352 3.10227 3.71591C3.26989 3.61364 3.42045 3.4929 3.55398 3.35369C3.6875 3.21165 3.79261 3.0483 3.86932 2.86364C3.94886 2.67898 3.98864 2.47443 3.98864 2.25C3.98864 1.97159 3.9233 1.73011 3.79261 1.52557C3.66193 1.32102 3.48722 1.16335 3.26847 1.05256C3.04972 0.941761 2.80682 0.886364 2.53977 0.886364C2.30682 0.886364 2.08239 0.934659 1.86648 1.03125C1.65057 1.12784 1.47017 1.27983 1.32528 1.48722C1.1804 1.6946 1.09659 1.96591 1.07386 2.30114H0C0.0227273 1.81818 0.147727 1.40483 0.375 1.06108C0.605114 0.71733 0.90767 0.454545 1.28267 0.272727C1.66051 0.090909 2.07955 0 2.53977 0C3.03977 0 3.47443 0.0994318 3.84375 0.298295C4.21591 0.497159 4.50284 0.769886 4.70455 1.11648C4.90909 1.46307 5.01136 1.85795 5.01136 2.30114C5.01136 2.61364 4.96307 2.89631 4.86648 3.14915C4.77273 3.40199 4.63636 3.62784 4.45739 3.8267C4.28125 4.02557 4.06818 4.2017 3.81818 4.35511C3.56818 4.51136 3.3679 4.67614 3.21733 4.84943C3.06676 5.01989 2.95739 5.22301 2.8892 5.45881C2.82102 5.6946 2.78409 5.98864 2.77841 6.34091V6.39205H1.75568ZM2.30114 8.91477C2.09091 8.91477 1.91051 8.83949 1.75994 8.68892C1.60938 8.53835 1.53409 8.35796 1.53409 8.14773C1.53409 7.9375 1.60938 7.7571 1.75994 7.60653C1.91051 7.45597 2.09091 7.38068 2.30114 7.38068C2.51136 7.38068 2.69176 7.45597 2.84233 7.60653C2.9929 7.7571 3.06818 7.9375 3.06818 8.14773C3.06818 8.28693 3.03267 8.41477 2.96165 8.53125C2.89347 8.64773 2.80114 8.74148 2.68466 8.8125C2.57102 8.88068 2.44318 8.91477 2.30114 8.91477Z" fill="#ABABAB"/>
</svg>
